<mxfile host="app.diagrams.net" modified="2021-07-05T13:29:13.604Z" agent="5.0 (Macintosh; Intel Mac OS X 10_14_6) AppleWebKit/537.36 (KHTML, like Gecko) Chrome/91.0.4472.114 Safari/537.36" etag="cfnH0hAv_Lq-q6ShXO6-" version="14.8.4" type="github">
  <diagram id="T_FmV4yvVIJ0MWvqqPob" name="Page-1">
    <mxGraphModel dx="1186" dy="764" grid="1" gridSize="10" guides="1" tooltips="1" connect="1" arrows="1" fold="1" page="1" pageScale="1" pageWidth="827" pageHeight="1169" math="0" shadow="0">
      <root>
        <mxCell id="0" />
        <mxCell id="1" parent="0" />
        <mxCell id="XZTSzsPNWQBIwywEUYvJ-4" value="" style="edgeStyle=orthogonalEdgeStyle;rounded=0;orthogonalLoop=1;jettySize=auto;html=1;" edge="1" parent="1" source="XZTSzsPNWQBIwywEUYvJ-1" target="XZTSzsPNWQBIwywEUYvJ-3">
          <mxGeometry relative="1" as="geometry" />
        </mxCell>
        <mxCell id="XZTSzsPNWQBIwywEUYvJ-1" value="" style="rounded=0;whiteSpace=wrap;html=1;" vertex="1" parent="1">
          <mxGeometry x="100" y="70" width="120" height="60" as="geometry" />
        </mxCell>
        <mxCell id="XZTSzsPNWQBIwywEUYvJ-2" value="" style="ellipse;whiteSpace=wrap;html=1;" vertex="1" parent="1">
          <mxGeometry x="540" y="80" width="120" height="230" as="geometry" />
        </mxCell>
        <mxCell id="XZTSzsPNWQBIwywEUYvJ-3" value="" style="shape=singleArrow;whiteSpace=wrap;html=1;arrowWidth=0.4;arrowSize=0.4;rounded=0;" vertex="1" parent="1">
          <mxGeometry x="320" y="70" width="80" height="60" as="geometry" />
        </mxCell>
        <mxCell id="XZTSzsPNWQBIwywEUYvJ-5" value="" style="ellipse;whiteSpace=wrap;html=1;aspect=fixed;" vertex="1" parent="1">
          <mxGeometry x="370" y="350" width="80" height="80" as="geometry" />
        </mxCell>
      </root>
    </mxGraphModel>
  </diagram>
</mxfile>
